#!OML:ASF E:\motion texture\Top Level 1\Subject 1\Session 1\male.ASF
:FULLY-SPECIFIED
:DEGREES
164
root 25.8366 17.0961 5.09271 37.8977 -78.213 -29.48
lowerback 5.62681 -2.16564 3.29371
upperback 0.667852 -2.69046 0.00894354
thorax -2.61534 -1.37804 -1.62386
lowerneck -9.69351 -9.07482 -14.5476
upperneck 0.139764 -10.948 11.5393
head 3.0463 -5.21481 5.13205
rclavicle -1.76918e-014 -1.27222e-014
rhumerus -2.53548 26.9096 -79.5298
rradius 57.1794
rwrist 15.5595
rhand -20.6262 -20.8126
rfingers 7.12502
rthumb 5.73523 -50.715
lclavicle -1.76918e-014 -1.27222e-014
lhumerus 2.24612 -17.0854 87.3109
lradius 51.3599
lwrist -7.91761
lhand -13.0293 26.7936
lfingers 7.12502
lthumb 13.0649 56.3644
rfemur -27.5022 -4.35405 17.4579
rtibia 43.7128
rfoot -15.751 -15.7401
rtoes -11.2797
lfemur -27.8602 3.60236 -11.7552
ltibia 52.9075
lfoot -16.2615 -2.03056
ltoes -16.7401
165
root 25.7007 17.0798 5.0904 37.739 -77.5685 -29.2992
lowerback 5.76518 -2.19677 3.44281
upperback 0.732502 -2.71908 0.0115824
thorax -2.63432 -1.39359 -1.6982
lowerneck -9.45495 -9.14177 -14.6481
upperneck -0.14981 -11.0542 11.7156
head 2.95254 -5.27099 5.20599
rclavicle 2.84262e-014 2.22639e-014
rhumerus -1.08912 27.1298 -78.8098
rradius 58.1302
rwrist 16.1784
rhand -21.1949 -20.8217
rfingers 7.12502
rthumb 5.18621 -50.7383
lclavicle 2.84262e-014 2.22639e-014
lhumerus 3.81467 -17.8333 87.1162
lradius 51.8304
lwrist -7.52264
lhand -12.9285 26.9373
lfingers 7.12502
lthumb 13.1622 56.5018
rfemur -26.8093 -4.2935 17.82
rtibia 43.3229
rfoot -16.1953 -16.1567
rtoes -11.5711
lfemur -29.0828 3.83365 -11.2167
ltibia 53.9745
lfoot -15.9118 -2.05495
ltoes -17.3907
166
root 25.5642 17.0651 5.08901 37.5886 -76.9285 -29.1145
lowerback 5.90113 -2.2228 3.57617
upperback 0.794666 -2.74178 0.00568512
thorax -2.65393 -1.40606 -1.77299
lowerneck -9.22074 -9.21221 -14.7516
upperneck -0.432901 -11.1651 11.9052
head 2.86359 -5.32946 5.28398
rclavicle 1.90833e-014 -2.70347e-014
rhumerus 0.386524 27.2826 -78.0727
rradius 59.0988
rwrist 16.8205
rhand -21.7699 -20.8546
rfingers 7.12502
rthumb 4.63098 -50.784
lclavicle 1.90833e-014 -2.70347e-014
lhumerus 5.40828 -18.5681 86.9053
lradius 52.2949
lwrist -7.1182
lhand -12.8326 27.0858
lfingers 7.12502
lthumb 13.2545 56.6444
rfemur -26.1069 -4.23481 18.2007
rtibia 42.9361
rfoot -16.6267 -16.6064
rtoes -11.8129
lfemur -30.3163 4.04092 -10.6848
ltibia 54.8928
lfoot -15.5356 -2.04445
ltoes -17.9932
167
root 25.4269 17.0521 5.08872 37.4471 -76.2955 -28.9266
lowerback 6.03379 -2.24325 3.69218
upperback 0.853532 -2.7581 -0.00821993
thorax -2.67434 -1.4152 -1.84692
lowerneck -8.98764 -9.2852 -14.8558
upperneck -0.710507 -11.2799 12.1039
head 2.77816 -5.38998 5.36463
rclavicle 1.82882e-014 3.97569e-015
rhumerus 1.88419 27.3687 -77.3225
rradius 60.0831
rwrist 17.482
rhand -22.3553 -20.9112
rfingers 7.12502
rthumb 4.06567 -50.8521
lclavicle 1.82882e-014 3.97569e-015
lhumerus 7.02245 -19.2896 86.6815
lradius 52.752
lwrist -6.70533
lhand -12.7482 27.2333
lfingers 7.12502
lthumb 13.3359 56.7865
rfemur -25.3977 -4.17951 18.597
rtibia 42.5509
rfoot -17.0458 -17.0883
rtoes -12.0043
lfemur -31.5511 4.22545 -10.1612
ltibia 55.6481
lfoot -15.1364 -2.00044
ltoes -18.5474
168
root 25.2889 17.0407 5.08966 37.321 -75.671 -28.7422
lowerback 6.16168 -2.2578 3.79105
upperback 0.910731 -2.76773 -0.0290698
thorax -2.69296 -1.42083 -1.91914
lowerneck -8.76338 -9.36085 -14.9629
upperneck -0.978482 -11.3976 12.3127
head 2.69883 -5.4519 5.44827
rclavicle -1.5704e-014 1.51076e-014
rhumerus 3.40478 27.3873 -76.5607
rradius 61.0786
rwrist 18.1602
rhand -22.945 -20.9923
rfingers 7.12502
rthumb 3.49622 -50.9434
lclavicle -1.5704e-014 1.51076e-014
lhumerus 8.65645 -19.9965 86.4458
lradius 53.2037
lwrist -6.28299
lhand -12.6717 27.3889
lfingers 7.12502
lthumb 13.4097 56.9374
rfemur -24.6846 -4.1256 19.0078
rtibia 42.1644
rfoot -17.4511 -17.6004
rtoes -12.1408
lfemur -32.7789 4.38987 -9.64472
ltibia 56.2297
lfoot -14.7229 -1.92385
ltoes -19.0553
169
root 25.1498 17.0309 5.09214 37.2067 -75.0596 -28.558
lowerback 6.2867 -2.26649 3.87199
upperback 0.96415 -2.77077 -0.0580653
thorax -2.713 -1.42307 -1.99038
lowerneck -8.54139 -9.43848 -15.0734
upperneck -1.23978 -11.518 12.5314
head 2.62365 -5.5153 5.53517
rclavicle 1.70955e-014 -5.56597e-015
rhumerus 4.93808 27.3409 -75.7951
rradius 62.084
rwrist 18.8528
rhand -23.5456 -21.1022
rfingers 7.12502
rthumb 2.91618 -51.062
lclavicle 1.70955e-014 -5.56597e-015
lhumerus 10.3039 -20.6868 86.2006
lradius 53.6476
lwrist -5.85032
lhand -12.6086 27.5445
lfingers 7.12502
lthumb 13.4705 57.0889
rfemur -23.9688 -4.0737 19.4268
rtibia 41.7726
rfoot -17.8343 -18.1406
rtoes -12.2362
lfemur -33.9896 4.53654 -9.13975
ltibia 56.6271
lfoot -14.3045 -1.81838
ltoes -19.5098
